<?xml version="1.0" encoding="UTF-8"?>
<svg width="24px" height="24px" viewBox="0 0 24 24" version="1.1" xmlns="http://www.w3.org/2000/svg" xmlns:xlink="http://www.w3.org/1999/xlink">
    <!-- Generator: Sketch 49.3 (51167) - http://www.bohemiancoding.com/sketch -->
    <title>excited active</title>
    <desc>Created with Sketch.</desc>
    <defs></defs>
    <g id="Page-1" stroke="none" stroke-width="1" fill="none" fill-rule="evenodd">
        <g id="03.2.Ket.Thuc.Cuoc.Goi" transform="translate(-352.000000, -508.000000)" fill="#FFFFFF" fill-rule="nonzero">
            <g id="Group-13" transform="translate(314.000000, 493.000000)">
                <g id="Group-11" transform="translate(38.000000, 15.000000)">
                    <path d="M20.4897367,3.51156249 C15.8081786,-1.17033224 8.19159509,-1.17033224 3.51094224,3.51043105 C-1.17061579,8.19119435 -1.17016321,15.8080419 3.51139482,20.4897104 C8.19159509,25.1702474 15.8081786,25.1702474 20.4892841,20.4888052 C25.1703895,15.8080419 25.1699369,8.19164692 20.4897367,3.51156249 Z M19.1797241,19.1797303 C15.2211735,23.1384092 8.77905278,23.1388617 4.8202759,19.1801828 C0.86059384,15.2208251 0.86127272,8.77863749 4.8202759,4.81995859 C8.77905278,0.861505981 15.2207209,0.861053405 19.1801767,4.82041117 C23.1389536,8.77909007 23.138501,15.2212777 19.1797241,19.1797303 Z M7.1821002,8.47744842 C7.14023592,8.43468003 7.12597943,8.3719983 7.14498808,8.31542635 C7.16399672,8.2588544 7.21310239,8.21767002 7.27193868,8.20861851 L8.31379353,8.04953818 L8.78108942,7.05409811 C8.80733945,6.99820503 8.86346022,6.96267784 8.92523832,6.96267784 C8.98701642,6.96267784 9.04313719,6.99820503 9.06938722,7.05409811 L9.53668311,8.04953818 L10.578538,8.20861851 C10.6373742,8.21767002 10.6864799,8.2588544 10.7054886,8.31542635 C10.7244972,8.3719983 10.7102407,8.43422745 10.6683764,8.47722213 L9.90984094,9.25497333 L10.0895179,10.3540532 C10.0992485,10.4142458 10.07413,10.4744383 10.0241191,10.5097392 C9.99673761,10.5289737 9.96460394,10.5387041 9.93247028,10.5387041 C9.90599395,10.5387041 9.87951762,10.532368 9.85553052,10.519017 L8.92546461,10.0051174 L7.99585129,10.519017 C7.94289864,10.5486607 7.87727355,10.5450401 7.8272627,10.5097392 C7.77747815,10.4746646 7.75213329,10.4142458 7.76186391,10.3540532 L7.94086199,9.25497333 L7.1821002,8.47744842 Z M13.5450182,8.47744842 C13.5029277,8.43468003 13.4888975,8.3719983 13.5079061,8.31542635 C13.5269148,8.2588544 13.5760204,8.21767002 13.6348567,8.20861851 L14.6767116,8.04953818 L15.1437812,7.05409811 C15.1700312,6.99820503 15.226152,6.96267784 15.2879301,6.96267784 C15.3497082,6.96267784 15.4058289,6.99820503 15.4323053,7.05409811 L15.8993749,8.04953818 L16.9412297,8.20861851 C17.000066,8.21767002 17.0491717,8.2588544 17.0681803,8.31542635 C17.087189,8.3719983 17.0729325,8.43422745 17.0310682,8.47722213 L16.2723064,9.25519962 L16.4519834,10.3542795 C16.461714,10.4144721 16.4365954,10.4746646 16.3865846,10.5099655 C16.3592031,10.5292 16.3270694,10.5389303 16.2949357,10.5389303 C16.2684594,10.5389303 16.2422094,10.5325943 16.217996,10.5192433 L15.2879301,10.0053437 L14.3585431,10.5192433 C14.3055904,10.548887 14.2399653,10.5452664 14.1899545,10.5099655 C14.1401699,10.4748909 14.1148251,10.4144721 14.1245557,10.3542795 L14.3035538,9.25519962 L13.5450182,8.47744842 Z M17.7742158,13.8182932 C17.8344098,13.9094872 17.844593,14.024894 17.8009184,14.1251395 C16.8312511,16.3660677 14.5608494,17.8145359 12.01618,17.8145359 C9.4169739,17.8145359 7.13276823,16.359279 6.19727128,14.1074891 C6.155407,14.0072436 6.16672167,13.8927419 6.22691572,13.8024531 C6.28733606,13.7126168 6.38848921,13.6583078 6.49665746,13.6583078 C6.49688376,13.6583078 6.49688376,13.6583078 6.49711005,13.6583078 L17.5035688,13.6723376 C17.6128686,13.6723376 17.7144743,13.7270993 17.7742158,13.8182932 Z" id="excited-active"></path>
                </g>
            </g>
        </g>
    </g>
</svg>