<?xml version="1.0" encoding="UTF-8"?>
<svg width="24px" height="24px" viewBox="0 0 24 24" version="1.1" xmlns="http://www.w3.org/2000/svg" xmlns:xlink="http://www.w3.org/1999/xlink">
    <!-- Generator: Sketch 49.3 (51167) - http://www.bohemiancoding.com/sketch -->
    <title>happy df</title>
    <desc>Created with Sketch.</desc>
    <defs></defs>
    <g id="Page-1" stroke="none" stroke-width="1" fill="none" fill-rule="evenodd">
        <g id="03.2.Ket.Thuc.Cuoc.Goi" transform="translate(-571.000000, -508.000000)" fill="#FFFFFF" fill-rule="nonzero">
            <g id="Group-13-Copy" transform="translate(522.000000, 493.000000)">
                <g id="Group-11" transform="translate(49.000000, 15.000000)">
                    <path d="M20.4896973,3.51156249 C15.8082,-1.17033224 8.19148889,-1.17033224 3.51089672,3.51043105 C-1.17060062,8.19119435 -1.17014803,15.8080419 3.5113493,20.4897104 C8.19148889,25.1702474 15.8082,25.1702474 20.4892447,20.4888052 C25.1702895,15.8080419 25.1700632,8.19164692 20.4896973,3.51156249 Z M19.1797017,19.1797303 C15.2209762,23.1384092 8.77939154,23.1388617 4.82043969,19.1801828 C0.860808973,15.2208251 0.861261554,8.77863749 4.82043969,4.81995859 C8.77916525,0.861505981 15.2205236,0.861053405 19.1801543,4.82041117 C23.1388799,8.77909007 23.1384273,15.2212777 19.1797017,19.1797303 Z M7.52189538,8.75080409 C7.52189538,7.97599464 8.15030402,7.3475934 8.92512261,7.3475934 C9.6997149,7.3475934 10.3281235,7.97576835 10.3281235,8.75080409 C10.3281235,9.52606612 9.6997149,10.1542411 8.92512261,10.1542411 C8.15030402,10.1542411 7.52189538,9.52606612 7.52189538,8.75080409 Z M13.8845046,8.75080409 C13.8845046,7.97599464 14.5133659,7.3475934 15.2881845,7.3475934 C16.0627768,7.3475934 16.6911854,7.97576835 16.6911854,8.75080409 C16.6911854,9.52606612 16.063003,10.1542411 15.2881845,10.1542411 C14.5133659,10.1542411 13.8845046,9.52606612 13.8845046,8.75080409 Z M17.201923,14.4978355 C16.3322887,16.5088553 14.2956744,17.8081999 12.0137613,17.8081999 C9.68274312,17.8081999 7.63413545,16.5022929 6.79459779,14.4810902 C6.65067705,14.1350962 6.81473764,13.7377348 7.16118836,13.5938157 C7.24627358,13.5587411 7.33452686,13.5419958 7.42142241,13.5419958 C7.68754,13.5419958 7.94008017,13.6992659 8.04847331,13.9606283 C8.67688196,15.4735886 10.2333078,16.4506993 12.0137613,16.4506993 C13.753935,16.4506993 15.3013093,15.4729097 15.9557414,13.9590443 C16.1046405,13.6148605 16.5042695,13.4562328 16.848231,13.6053564 C17.1921925,13.7544801 17.3508221,14.1538781 17.201923,14.4978355 Z" id="happy-df"></path>
                </g>
            </g>
        </g>
    </g>
</svg>