<?xml version="1.0" encoding="UTF-8"?>
<svg width="24px" height="24px" viewBox="0 0 24 24" version="1.1" xmlns="http://www.w3.org/2000/svg" xmlns:xlink="http://www.w3.org/1999/xlink">
    <!-- Generator: Sketch 49.3 (51167) - http://www.bohemiancoding.com/sketch -->
    <title>normal df</title>
    <desc>Created with Sketch.</desc>
    <defs></defs>
    <g id="Page-1" stroke="none" stroke-width="1" fill="none" fill-rule="evenodd">
        <g id="03.2.Ket.Thuc.Cuoc.Goi" transform="translate(-767.000000, -508.000000)" fill="#FFFFFF" fill-rule="nonzero">
            <g id="Group-13-Copy-2" transform="translate(730.000000, 493.000000)">
                <g id="Group-11" transform="translate(37.000000, 15.000000)">
                    <path d="M3.5108843,3.51020478 C-1.17059648,8.19119435 -1.1701439,15.8080419 3.51133688,20.4897104 C8.19145993,25.1702474 15.8081441,25.1702474 20.4891723,20.4888052 C25.1704268,15.8080419 25.1699742,8.19187322 20.4896249,3.51178879 C15.8081441,-1.17033223 8.19123364,-1.17033223 3.5108843,3.51020478 Z M19.1796339,19.1797303 C15.2209224,23.1384092 8.77913421,23.1388617 4.82042265,19.1801828 C0.860805929,15.2208251 0.861258509,8.7786375 4.82042265,4.8199586 C8.77890792,0.861279705 15.2204698,0.860827129 19.1800865,4.82018489 C23.1387981,8.77886379 23.1383455,15.2212777 19.1796339,19.1797303 Z M17.1163247,16.073025 C17.1163247,16.5077238 16.7637654,16.8602802 16.3290629,16.8602802 L7.67167255,16.8602802 C7.23697008,16.8602802 6.88441077,16.5077238 6.88441077,16.073025 C6.88441077,15.6383261 7.23697008,15.285996 7.67167255,15.285996 L16.3292892,15.285996 C16.7637654,15.2862223 17.1163247,15.6383261 17.1163247,16.073025 Z M7.52189538,8.75080409 C7.52189538,7.97599464 8.15030402,7.3475934 8.92512261,7.3475934 C9.6997149,7.3475934 10.3281235,7.97576835 10.3281235,8.75080409 C10.3281235,9.52606612 9.6997149,10.1542411 8.92512261,10.1542411 C8.15030402,10.1542411 7.52189538,9.52606612 7.52189538,8.75080409 Z M13.8845046,8.75080409 C13.8845046,7.97599464 14.5133659,7.3475934 15.2881845,7.3475934 C16.0627768,7.3475934 16.6911854,7.97576835 16.6911854,8.75080409 C16.6911854,9.52606612 16.063003,10.1542411 15.2881845,10.1542411 C14.5133659,10.1542411 13.8845046,9.52606612 13.8845046,8.75080409 Z" id="normal-df"></path>
                </g>
            </g>
        </g>
    </g>
</svg>