<?xml version="1.0" encoding="UTF-8"?>
<svg width="24px" height="24px" viewBox="0 0 24 24" version="1.1" xmlns="http://www.w3.org/2000/svg" xmlns:xlink="http://www.w3.org/1999/xlink">
    <!-- Generator: Sketch 49.3 (51167) - http://www.bohemiancoding.com/sketch -->
    <title>sad df</title>
    <desc>Created with Sketch.</desc>
    <defs></defs>
    <g id="Page-1" stroke="none" stroke-width="1" fill="none" fill-rule="evenodd">
        <g id="03.2.Ket.Thuc.Cuoc.Goi" transform="translate(-966.000000, -508.000000)" fill="#FFFFFF" fill-rule="nonzero">
            <g id="Group-13-Copy-3" transform="translate(938.000000, 493.000000)">
                <g id="Group-11" transform="translate(28.000000, 15.000000)">
                    <path d="M20.4896973,3.51156249 C15.8082,-1.17033224 8.19148889,-1.17033224 3.51089672,3.51043105 C-1.17060062,8.19119435 -1.17014803,15.8080419 3.5113493,20.4897104 C8.19148889,25.1702474 15.8082,25.1702474 20.4892447,20.4888052 C25.1702895,15.8080419 25.1700632,8.19164692 20.4896973,3.51156249 Z M19.1797017,19.1797303 C15.2209762,23.1384092 8.77939154,23.1388617 4.82043969,19.1801828 C0.860808973,15.2208251 0.861261554,8.77863749 4.82043969,4.81995859 C8.77916525,0.861505981 15.2205236,0.861053405 19.1801543,4.82041117 C23.1388799,8.77909007 23.1384273,15.2212777 19.1797017,19.1797303 Z M17.4282135,16.7455523 C17.5771126,17.0897361 17.4187093,17.4891341 17.0747478,17.6378051 C16.7305599,17.7871551 16.3311573,17.6283011 16.1822581,17.2843436 C15.5275998,15.7707044 13.9804518,14.7924623 12.2400518,14.7924623 C10.4595983,14.7924623 8.90294614,15.7697993 8.27499008,17.2825333 C8.16659694,17.5436694 7.91383048,17.701392 7.64793917,17.701392 C7.56104363,17.701392 7.47301663,17.6846467 7.38770513,17.6493458 C7.0414807,17.5054268 6.87742011,17.1080654 7.02111456,16.7620713 C7.86065222,14.7408686 9.90948617,13.4349617 12.2400518,13.4349617 C14.5219649,13.4349617 16.5585792,14.7343063 17.4282135,16.7455523 Z M7.52189538,8.75080409 C7.52189538,7.97599464 8.15030402,7.3475934 8.92512261,7.3475934 C9.6997149,7.3475934 10.3281235,7.97576835 10.3281235,8.75080409 C10.3281235,9.52606612 9.6997149,10.1542411 8.92512261,10.1542411 C8.15030402,10.1542411 7.52189538,9.52606612 7.52189538,8.75080409 Z M13.8845046,8.75080409 C13.8845046,7.97599464 14.5133659,7.3475934 15.2881845,7.3475934 C16.0627768,7.3475934 16.6911854,7.97576835 16.6911854,8.75080409 C16.6911854,9.52606612 16.063003,10.1542411 15.2881845,10.1542411 C14.5133659,10.1542411 13.8845046,9.52606612 13.8845046,8.75080409 Z" id="sad-df"></path>
                </g>
            </g>
        </g>
    </g>
</svg>