<?xml version="1.0" encoding="UTF-8"?>
<svg width="16px" height="16px" viewBox="0 0 16 16" version="1.1" xmlns="http://www.w3.org/2000/svg" xmlns:xlink="http://www.w3.org/1999/xlink">
    <!-- Generator: Sketch 49.3 (51167) - http://www.bohemiancoding.com/sketch -->
    <title>Combined Shape</title>
    <desc>Created with Sketch.</desc>
    <defs></defs>
    <g id="Page-1" stroke="none" stroke-width="1" fill="none" fill-rule="evenodd">
        <g id="04.Lich.Su.Cuoc.Goi" transform="translate(-1360.000000, -201.000000)" fill="#FF606B" fill-rule="nonzero">
            <path d="M1372.0625,208.1875 C1371.71732,208.1875 1371.4375,207.907678 1371.4375,207.5625 C1371.4375,207.217322 1371.71732,206.9375 1372.0625,206.9375 C1372.40768,206.9375 1372.6875,207.217322 1372.6875,207.5625 C1372.6875,207.907678 1372.40768,208.1875 1372.0625,208.1875 Z M1373.5,202.25 C1374.8785,202.25 1376,203.3715 1376,204.75 L1376,208.3125 C1376,208.657688 1375.72019,208.9375 1375.375,208.9375 C1375.02981,208.9375 1374.75,208.657688 1374.75,208.3125 L1374.75,204.75 C1374.75,204.06075 1374.18925,203.5 1373.5,203.5 L1372.6875,203.5 L1372.6875,204.125 C1372.6875,204.470188 1372.40769,204.75 1372.0625,204.75 C1371.71731,204.75 1371.4375,204.470188 1371.4375,204.125 L1371.4375,203.5 L1368.59375,203.5 L1368.59375,204.125 C1368.59375,204.470188 1368.31394,204.75 1367.96875,204.75 C1367.62356,204.75 1367.34375,204.470188 1367.34375,204.125 L1367.34375,203.5 L1364.53125,203.5 L1364.53125,204.125 C1364.53125,204.470188 1364.25144,204.75 1363.90625,204.75 C1363.56106,204.75 1363.28125,204.470188 1363.28125,204.125 L1363.28125,203.5 L1362.5,203.5 C1361.81075,203.5 1361.25,204.06075 1361.25,204.75 L1361.25,214.5 C1361.25,215.18925 1361.81075,215.75 1362.5,215.75 L1367.28125,215.75 C1367.62644,215.75 1367.90625,216.029812 1367.90625,216.375 C1367.90625,216.720188 1367.62644,217 1367.28125,217 L1362.5,217 C1361.1215,217 1360,215.8785 1360,214.5 L1360,204.75 C1360,203.3715 1361.1215,202.25 1362.5,202.25 L1363.28125,202.25 L1363.28125,201.625 C1363.28125,201.279812 1363.56106,201 1363.90625,201 C1364.25144,201 1364.53125,201.279812 1364.53125,201.625 L1364.53125,202.25 L1367.34375,202.25 L1367.34375,201.625 C1367.34375,201.279812 1367.62356,201 1367.96875,201 C1368.31394,201 1368.59375,201.279812 1368.59375,201.625 L1368.59375,202.25 L1371.4375,202.25 L1371.4375,201.625 C1371.4375,201.279812 1371.71731,201 1372.0625,201 C1372.40769,201 1372.6875,201.279812 1372.6875,201.625 L1372.6875,202.25 L1373.5,202.25 Z M1372.21875,209.4375 C1374.30375,209.4375 1376,211.13375 1376,213.21875 C1376,215.30375 1374.30375,217 1372.21875,217 C1370.13375,217 1368.4375,215.30375 1368.4375,213.21875 C1368.4375,211.13375 1370.13375,209.4375 1372.21875,209.4375 Z M1372.21875,215.75 C1373.61447,215.75 1374.75,214.6145 1374.75,213.21875 C1374.75,211.823 1373.61447,210.6875 1372.21875,210.6875 C1370.82303,210.6875 1369.6875,211.823 1369.6875,213.21875 C1369.6875,214.6145 1370.82303,215.75 1372.21875,215.75 Z M1373.125,212.59375 C1373.47019,212.59375 1373.75,212.873562 1373.75,213.21875 C1373.75,213.563938 1373.47019,213.84375 1373.125,213.84375 L1372.21875,213.84375 C1371.87356,213.84375 1371.59375,213.563938 1371.59375,213.21875 L1371.59375,211.9375 C1371.59375,211.592312 1371.87356,211.3125 1372.21875,211.3125 C1372.56394,211.3125 1372.84375,211.592312 1372.84375,211.9375 L1372.84375,212.59375 L1373.125,212.59375 Z M1369.34375,208.1875 C1368.99857,208.1875 1368.71875,207.907678 1368.71875,207.5625 C1368.71875,207.217322 1368.99857,206.9375 1369.34375,206.9375 C1369.68893,206.9375 1369.96875,207.217322 1369.96875,207.5625 C1369.96875,207.907678 1369.68893,208.1875 1369.34375,208.1875 Z M1366.625,210.90625 C1366.27982,210.90625 1366,210.626428 1366,210.28125 C1366,209.936072 1366.27982,209.65625 1366.625,209.65625 C1366.97018,209.65625 1367.25,209.936072 1367.25,210.28125 C1367.25,210.626428 1366.97018,210.90625 1366.625,210.90625 Z M1363.90625,208.1875 C1363.56107,208.1875 1363.28125,207.907678 1363.28125,207.5625 C1363.28125,207.217322 1363.56107,206.9375 1363.90625,206.9375 C1364.25143,206.9375 1364.53125,207.217322 1364.53125,207.5625 C1364.53125,207.907678 1364.25143,208.1875 1363.90625,208.1875 Z M1363.90625,210.90625 C1363.56107,210.90625 1363.28125,210.626428 1363.28125,210.28125 C1363.28125,209.936072 1363.56107,209.65625 1363.90625,209.65625 C1364.25143,209.65625 1364.53125,209.936072 1364.53125,210.28125 C1364.53125,210.626428 1364.25143,210.90625 1363.90625,210.90625 Z M1363.90625,213.625 C1363.56107,213.625 1363.28125,213.345178 1363.28125,213 C1363.28125,212.654822 1363.56107,212.375 1363.90625,212.375 C1364.25143,212.375 1364.53125,212.654822 1364.53125,213 C1364.53125,213.345178 1364.25143,213.625 1363.90625,213.625 Z M1366.625,213.625 C1366.27982,213.625 1366,213.345178 1366,213 C1366,212.654822 1366.27982,212.375 1366.625,212.375 C1366.97018,212.375 1367.25,212.654822 1367.25,213 C1367.25,213.345178 1366.97018,213.625 1366.625,213.625 Z M1366.625,208.1875 C1366.27982,208.1875 1366,207.907678 1366,207.5625 C1366,207.217322 1366.27982,206.9375 1366.625,206.9375 C1366.97018,206.9375 1367.25,207.217322 1367.25,207.5625 C1367.25,207.907678 1366.97018,208.1875 1366.625,208.1875 Z" id="Combined-Shape"></path>
        </g>
    </g>
</svg>