<?xml version="1.0" encoding="UTF-8"?>
<svg width="15px" height="16px" viewBox="0 0 15 16" version="1.1" xmlns="http://www.w3.org/2000/svg" xmlns:xlink="http://www.w3.org/1999/xlink">
    <!-- Generator: Sketch 49.3 (51167) - http://www.bohemiancoding.com/sketch -->
    <title>Shape</title>
    <desc>Created with Sketch.</desc>
    <defs></defs>
    <g id="Page-1" stroke="none" stroke-width="1" fill="none" fill-rule="evenodd">
        <g id="01.Tong.Quan" transform="translate(-265.000000, -32.000000)" fill="#747485" fill-rule="nonzero">
            <path d="M279.771935,46.5734649 L276.074178,42.612927 C277.024936,41.4490047 277.545862,39.9845522 277.545862,38.4599937 C277.545862,34.8980093 274.731771,32 271.272931,32 C267.814091,32 265,34.8980093 265,38.4599937 C265,42.021978 267.814091,44.9199874 271.272931,44.9199874 C272.571428,44.9199874 273.808832,44.5166591 274.866775,43.7510094 L278.592624,47.7416003 C278.748356,47.9081557 278.957817,48 279.182279,48 C279.394741,48 279.596293,47.9165818 279.749298,47.7649124 C280.074399,47.4427553 280.084763,46.9085419 279.771935,46.5734649 Z M271.272931,33.6852157 C273.82956,33.6852157 275.909446,35.827125 275.909446,38.4599937 C275.909446,41.0928624 273.82956,43.2347716 271.272931,43.2347716 C268.716303,43.2347716 266.636417,41.0928624 266.636417,38.4599937 C266.636417,35.827125 268.716303,33.6852157 271.272931,33.6852157 Z" id="Shape"></path>
        </g>
    </g>
</svg>